<svg width="350" height="177" viewBox="0 0 350 177" fill="none" xmlns="http://www.w3.org/2000/svg">
<circle cx="114" cy="110" r="50" fill="#2BC875"/>
<line x1="113.425" y1="150.716" x2="113.425" y2="69.02" stroke="white" stroke-width="3"/>
<line x1="139.146" y1="140.085" x2="88.107" y2="80.1068" stroke="white" stroke-width="3"/>
<line x1="138.025" y1="77.7115" x2="90.441" y2="139.956" stroke="white" stroke-width="3"/>
<line x1="72.9102" y1="108.757" x2="150.716" y2="108.757" stroke="white" stroke-width="3"/>
<circle cx="114" cy="110" r="37.5" stroke="white" stroke-width="7"/>
<circle cx="113.5" cy="109.5" r="14.5" fill="white"/>
<path d="M201.84 97.264H223.088C227.184 97.264 230.363 98.288 232.624 100.336C234.928 102.384 236.08 105.371 236.08 109.296C236.08 111.387 235.568 113.285 234.544 114.992C233.563 116.656 232.24 117.936 230.576 118.832C235.227 120.368 237.552 123.803 237.552 129.136C237.552 131.781 236.955 134.085 235.76 136.048C234.565 137.968 232.944 139.44 230.896 140.464C228.891 141.488 226.651 142 224.176 142H201.84V97.264ZM221.808 115.888C223.643 115.888 225.115 115.397 226.224 114.416C227.333 113.392 227.888 111.856 227.888 109.808C227.888 107.461 227.333 105.861 226.224 105.008C225.157 104.112 223.557 103.664 221.424 103.664H209.904V115.888H221.808ZM222.32 135.6C224.581 135.6 226.309 135.131 227.504 134.192C228.741 133.253 229.36 131.589 229.36 129.2C229.36 126.811 228.72 125.083 227.44 124.016C226.16 122.949 224.304 122.416 221.872 122.416H209.904V135.6H222.32ZM262.781 142.96C256.466 142.96 251.688 141.317 248.445 138.032C245.245 134.704 243.645 130.224 243.645 124.592V97.264H251.773V124.72C251.773 128.261 252.754 130.971 254.717 132.848C256.722 134.683 259.41 135.6 262.781 135.6C266.109 135.6 268.754 134.683 270.717 132.848C272.722 130.971 273.725 128.261 273.725 124.72V97.264H281.853V124.592C281.853 130.224 280.253 134.704 277.053 138.032C273.853 141.317 269.096 142.96 262.781 142.96ZM302.143 142.96C299.498 142.96 296.874 142.704 294.271 142.192C291.711 141.723 289.599 141.083 287.935 140.272V133.296C290.068 134.32 292.308 135.088 294.655 135.6C297.002 136.112 299.306 136.368 301.567 136.368C304.426 136.368 306.602 135.835 308.095 134.768C309.588 133.701 310.335 132.229 310.335 130.352C310.335 129.029 309.994 127.941 309.311 127.088C308.628 126.192 307.626 125.424 306.303 124.784C304.98 124.101 302.954 123.227 300.223 122.16C296.042 120.453 293.012 118.555 291.135 116.464C289.258 114.373 288.319 111.771 288.319 108.656C288.319 106.224 288.98 104.069 290.303 102.192C291.626 100.315 293.482 98.864 295.871 97.84C298.26 96.816 301.012 96.304 304.127 96.304C306.687 96.304 308.948 96.5173 310.911 96.944C312.916 97.328 314.879 97.9467 316.799 98.8V105.584C313.087 103.792 309.332 102.896 305.535 102.896C302.804 102.896 300.692 103.408 299.199 104.432C297.706 105.413 296.959 106.821 296.959 108.656C296.959 109.979 297.3 111.067 297.983 111.92C298.666 112.731 299.562 113.435 300.671 114.032C301.823 114.587 303.871 115.483 306.815 116.72C309.802 117.957 312.148 119.173 313.855 120.368C315.604 121.563 316.906 122.971 317.759 124.592C318.655 126.171 319.103 128.112 319.103 130.416C319.103 134.384 317.674 137.477 314.815 139.696C311.956 141.872 307.732 142.96 302.143 142.96Z" fill="#2BC875"/>
<path d="M2.56 97.264H11.008L19.904 128.88L28.672 97.264H34.944L43.712 128.88L52.608 97.264H61.056L48.32 142H40.768L31.808 110.896L22.848 142H15.296L2.56 97.264Z" fill="#2BC875"/>
<path d="M61.84 22.704H69.904V43.184C72.8053 39.9413 76.56 38.32 81.168 38.32C85.3067 38.32 88.4 39.4507 90.448 41.712C92.496 43.9307 93.52 46.896 93.52 50.608V70H85.456V51.376C85.456 46.896 83.3653 44.656 79.184 44.656C77.3493 44.656 75.6213 45.104 74 46C72.3787 46.8533 71.0133 48.1547 69.904 49.904V70H61.84V22.704Z" fill="#2BC875"/>
<path d="M181.12 128.96C175.403 128.96 170.88 127.531 167.552 124.672C164.224 121.813 162.56 117.824 162.56 112.704C162.56 107.669 164.032 103.68 166.976 100.736C169.92 97.792 174.123 96.32 179.584 96.32C183.168 96.32 186.219 97.0027 188.736 98.368C191.296 99.7333 193.216 101.611 194.496 104C195.776 106.347 196.416 109.035 196.416 112.064V115.776H170.24C170.795 120.341 174.763 122.624 182.144 122.624C184.107 122.624 186.112 122.453 188.16 122.112C190.208 121.771 192 121.301 193.536 120.704V126.912C192.085 127.509 190.208 128 187.904 128.384C185.643 128.768 183.381 128.96 181.12 128.96ZM188.8 110.272C188.715 107.84 187.84 105.963 186.176 104.64C184.555 103.317 182.315 102.656 179.456 102.656C176.64 102.656 174.421 103.339 172.8 104.704C171.179 106.069 170.325 107.925 170.24 110.272H188.8Z" fill="#2BC875"/>
<path d="M194.334 134.089L194.422 142.153L147.129 142.672L147.041 134.608L194.334 134.089Z" fill="#2BC875"/>
</svg>
